<mxfile host="app.diagrams.net" modified="2021-05-24T22:25:15.731Z" agent="5.0 (Windows NT 10.0; Win64; x64) AppleWebKit/537.36 (KHTML, like Gecko) Chrome/90.0.4430.212 Safari/537.36" etag="jmDdsk4uKxKi7psAF2DT" version="14.7.0" type="github">
  <diagram name="Page-1" id="5f0bae14-7c28-e335-631c-24af17079c00">
    <mxGraphModel dx="1342" dy="927" grid="1" gridSize="10" guides="1" tooltips="1" connect="1" arrows="1" fold="1" page="1" pageScale="1" pageWidth="1100" pageHeight="850" background="none" math="0" shadow="0">
      <root>
        <mxCell id="0" />
        <mxCell id="1" parent="0" />
        <mxCell id="LVj0R4BeIXPEFF04GviU-1" value="" style="rounded=1;whiteSpace=wrap;html=1;" vertex="1" parent="1">
          <mxGeometry x="90" y="80" width="920" height="630" as="geometry" />
        </mxCell>
        <mxCell id="LVj0R4BeIXPEFF04GviU-5" value="&amp;nbsp;&amp;nbsp;" style="shape=folder;fontStyle=1;spacingTop=10;tabWidth=40;tabHeight=30;tabPosition=left;html=1;" vertex="1" parent="1">
          <mxGeometry x="10" y="1230" width="1070" height="810" as="geometry" />
        </mxCell>
        <mxCell id="LVj0R4BeIXPEFF04GviU-16" value="&lt;font style=&quot;font-size: 12px&quot;&gt;ADS&lt;/font&gt;" style="text;html=1;align=center;verticalAlign=middle;resizable=0;points=[];autosize=1;strokeColor=none;" vertex="1" parent="1">
          <mxGeometry x="20" y="1240" width="40" height="20" as="geometry" />
        </mxCell>
        <mxCell id="LVj0R4BeIXPEFF04GviU-37" value="" style="group" vertex="1" connectable="0" parent="1">
          <mxGeometry x="50" y="1330" width="580" height="390" as="geometry" />
        </mxCell>
        <mxCell id="LVj0R4BeIXPEFF04GviU-23" value="z" style="group" vertex="1" connectable="0" parent="LVj0R4BeIXPEFF04GviU-37">
          <mxGeometry width="580" height="390" as="geometry" />
        </mxCell>
        <mxCell id="LVj0R4BeIXPEFF04GviU-29" value="" style="group" vertex="1" connectable="0" parent="LVj0R4BeIXPEFF04GviU-23">
          <mxGeometry x="-20" width="580" height="390" as="geometry" />
        </mxCell>
        <mxCell id="LVj0R4BeIXPEFF04GviU-22" value="" style="rounded=1;whiteSpace=wrap;html=1;" vertex="1" parent="LVj0R4BeIXPEFF04GviU-29">
          <mxGeometry width="580" height="390" as="geometry" />
        </mxCell>
        <mxCell id="LVj0R4BeIXPEFF04GviU-6" value="Systems" style="shape=folder;fontStyle=1;spacingTop=10;tabWidth=40;tabHeight=14;tabPosition=left;html=1;" vertex="1" parent="LVj0R4BeIXPEFF04GviU-29">
          <mxGeometry x="234.46808510638297" y="155" width="111.06382978723404" height="90" as="geometry" />
        </mxCell>
        <mxCell id="LVj0R4BeIXPEFF04GviU-11" value="Open Door" style="shape=folder;fontStyle=1;spacingTop=10;tabWidth=40;tabHeight=14;tabPosition=left;html=1;" vertex="1" parent="LVj0R4BeIXPEFF04GviU-29">
          <mxGeometry x="37.02" y="45" width="111.06" height="50" as="geometry" />
        </mxCell>
        <mxCell id="LVj0R4BeIXPEFF04GviU-10" value="Deploy Stairs" style="shape=folder;fontStyle=1;spacingTop=10;tabWidth=40;tabHeight=14;tabPosition=left;html=1;" vertex="1" parent="LVj0R4BeIXPEFF04GviU-29">
          <mxGeometry x="30.85" y="165" width="123.4" height="60" as="geometry" />
        </mxCell>
        <mxCell id="LVj0R4BeIXPEFF04GviU-24" value="Retract Stairs" style="shape=folder;fontStyle=1;spacingTop=10;tabWidth=40;tabHeight=14;tabPosition=left;html=1;" vertex="1" parent="LVj0R4BeIXPEFF04GviU-29">
          <mxGeometry x="37.02" y="285" width="111.06" height="60" as="geometry" />
        </mxCell>
        <mxCell id="LVj0R4BeIXPEFF04GviU-26" value="Unlock Door" style="shape=folder;fontStyle=1;spacingTop=10;tabWidth=40;tabHeight=14;tabPosition=left;html=1;" vertex="1" parent="LVj0R4BeIXPEFF04GviU-29">
          <mxGeometry x="234.47" y="285" width="111.06" height="60" as="geometry" />
        </mxCell>
        <mxCell id="LVj0R4BeIXPEFF04GviU-25" value="Retract Stairs" style="shape=folder;fontStyle=1;spacingTop=10;tabWidth=40;tabHeight=14;tabPosition=left;html=1;" vertex="1" parent="LVj0R4BeIXPEFF04GviU-29">
          <mxGeometry x="234.47" y="40" width="111.06" height="60" as="geometry" />
        </mxCell>
        <mxCell id="LVj0R4BeIXPEFF04GviU-27" value="Close Door" style="shape=folder;fontStyle=1;spacingTop=10;tabWidth=40;tabHeight=14;tabPosition=left;html=1;" vertex="1" parent="LVj0R4BeIXPEFF04GviU-29">
          <mxGeometry x="434.47" y="40" width="111.06" height="60" as="geometry" />
        </mxCell>
        <mxCell id="LVj0R4BeIXPEFF04GviU-28" value="Unlatch Door" style="shape=folder;fontStyle=1;spacingTop=10;tabWidth=40;tabHeight=14;tabPosition=left;html=1;" vertex="1" parent="LVj0R4BeIXPEFF04GviU-29">
          <mxGeometry x="434.46999999999997" y="285" width="111.06" height="60" as="geometry" />
        </mxCell>
        <mxCell id="LVj0R4BeIXPEFF04GviU-9" value="Seal Cabin Pressure" style="shape=folder;fontStyle=1;spacingTop=10;tabWidth=40;tabHeight=14;tabPosition=left;html=1;" vertex="1" parent="LVj0R4BeIXPEFF04GviU-29">
          <mxGeometry x="440" y="170" width="120" height="70" as="geometry" />
        </mxCell>
        <mxCell id="LVj0R4BeIXPEFF04GviU-30" value="&amp;lt;&amp;lt;import&amp;gt;&amp;gt;" style="edgeStyle=none;html=1;endArrow=open;endSize=12;dashed=1;verticalAlign=bottom;entryX=0;entryY=0;entryDx=0;entryDy=33;entryPerimeter=0;" edge="1" parent="LVj0R4BeIXPEFF04GviU-29" target="LVj0R4BeIXPEFF04GviU-6">
          <mxGeometry width="160" relative="1" as="geometry">
            <mxPoint x="110" y="95" as="sourcePoint" />
            <mxPoint x="270" y="95" as="targetPoint" />
          </mxGeometry>
        </mxCell>
        <mxCell id="LVj0R4BeIXPEFF04GviU-31" value="&amp;lt;&amp;lt;import&amp;gt;&amp;gt;" style="edgeStyle=none;html=1;endArrow=open;endSize=12;dashed=1;verticalAlign=bottom;" edge="1" parent="LVj0R4BeIXPEFF04GviU-29">
          <mxGeometry width="160" relative="1" as="geometry">
            <mxPoint x="427.77" y="95" as="sourcePoint" />
            <mxPoint x="346" y="190" as="targetPoint" />
          </mxGeometry>
        </mxCell>
        <mxCell id="LVj0R4BeIXPEFF04GviU-32" value="&amp;lt;&amp;lt;import&amp;gt;&amp;gt;" style="edgeStyle=none;html=1;endArrow=open;endSize=12;dashed=1;verticalAlign=bottom;entryX=0;entryY=0;entryDx=0;entryDy=90;entryPerimeter=0;" edge="1" parent="LVj0R4BeIXPEFF04GviU-29" target="LVj0R4BeIXPEFF04GviU-6">
          <mxGeometry x="-0.0431" y="-4" width="160" relative="1" as="geometry">
            <mxPoint x="144.47" y="305" as="sourcePoint" />
            <mxPoint x="234.47" y="200" as="targetPoint" />
            <mxPoint y="1" as="offset" />
          </mxGeometry>
        </mxCell>
        <mxCell id="LVj0R4BeIXPEFF04GviU-35" value="&amp;lt;&amp;lt;import&amp;gt;&amp;gt;" style="edgeStyle=none;html=1;endArrow=open;endSize=12;dashed=1;verticalAlign=bottom;" edge="1" parent="LVj0R4BeIXPEFF04GviU-29">
          <mxGeometry width="160" relative="1" as="geometry">
            <mxPoint x="299" y="100" as="sourcePoint" />
            <mxPoint x="299" y="170" as="targetPoint" />
          </mxGeometry>
        </mxCell>
        <mxCell id="LVj0R4BeIXPEFF04GviU-36" value="&amp;lt;&amp;lt;import&amp;gt;&amp;gt;" style="edgeStyle=none;html=1;endArrow=open;endSize=12;dashed=1;verticalAlign=bottom;" edge="1" parent="LVj0R4BeIXPEFF04GviU-29">
          <mxGeometry width="160" relative="1" as="geometry">
            <mxPoint x="300" y="300" as="sourcePoint" />
            <mxPoint x="300" y="240" as="targetPoint" />
          </mxGeometry>
        </mxCell>
        <mxCell id="LVj0R4BeIXPEFF04GviU-34" value="&amp;lt;&amp;lt;import&amp;gt;&amp;gt;" style="edgeStyle=none;html=1;endArrow=open;endSize=12;dashed=1;verticalAlign=bottom;exitX=0;exitY=0;exitDx=0;exitDy=25.5;exitPerimeter=0;" edge="1" parent="LVj0R4BeIXPEFF04GviU-37" source="LVj0R4BeIXPEFF04GviU-28">
          <mxGeometry x="-0.0431" y="-4" width="160" relative="1" as="geometry">
            <mxPoint x="415" y="290" as="sourcePoint" />
            <mxPoint x="320" y="240" as="targetPoint" />
            <mxPoint y="1" as="offset" />
          </mxGeometry>
        </mxCell>
        <mxCell id="LVj0R4BeIXPEFF04GviU-38" value="" style="group" vertex="1" connectable="0" parent="1">
          <mxGeometry x="1090" y="500" width="840" height="540" as="geometry" />
        </mxCell>
        <mxCell id="LVj0R4BeIXPEFF04GviU-39" value="z" style="group" vertex="1" connectable="0" parent="LVj0R4BeIXPEFF04GviU-38">
          <mxGeometry width="840" height="540" as="geometry" />
        </mxCell>
        <mxCell id="LVj0R4BeIXPEFF04GviU-40" value="" style="group" vertex="1" connectable="0" parent="LVj0R4BeIXPEFF04GviU-39">
          <mxGeometry x="-29.99551724137931" width="840" height="540" as="geometry" />
        </mxCell>
        <mxCell id="LVj0R4BeIXPEFF04GviU-41" value="" style="rounded=1;whiteSpace=wrap;html=1;" vertex="1" parent="LVj0R4BeIXPEFF04GviU-40">
          <mxGeometry x="-14.482758620689655" width="840" height="460" as="geometry" />
        </mxCell>
        <mxCell id="LVj0R4BeIXPEFF04GviU-42" value="Software" style="shape=folder;fontStyle=1;spacingTop=10;tabWidth=40;tabHeight=14;tabPosition=left;html=1;" vertex="1" parent="LVj0R4BeIXPEFF04GviU-40">
          <mxGeometry x="339.5744680851064" y="160.00051282051282" width="160.85106382978722" height="106.15384615384616" as="geometry" />
        </mxCell>
        <mxCell id="LVj0R4BeIXPEFF04GviU-48" value="Door Operator Station Controller SW" style="shape=folder;fontStyle=1;spacingTop=10;tabWidth=40;tabHeight=14;tabPosition=left;html=1;" vertex="1" parent="LVj0R4BeIXPEFF04GviU-40">
          <mxGeometry x="560" y="47.18" width="230.08" height="70.77" as="geometry" />
        </mxCell>
        <mxCell id="LVj0R4BeIXPEFF04GviU-49" value="Flight Operator Station Controller SW" style="shape=folder;fontStyle=1;spacingTop=10;tabWidth=40;tabHeight=14;tabPosition=left;html=1;" vertex="1" parent="LVj0R4BeIXPEFF04GviU-40">
          <mxGeometry x="10" y="30" width="310" height="130" as="geometry" />
        </mxCell>
        <mxCell id="LVj0R4BeIXPEFF04GviU-65" value="" style="group" vertex="1" connectable="0" parent="1">
          <mxGeometry x="360" y="820" width="590" height="350" as="geometry" />
        </mxCell>
        <mxCell id="LVj0R4BeIXPEFF04GviU-59" value="" style="rounded=1;whiteSpace=wrap;html=1;" vertex="1" parent="LVj0R4BeIXPEFF04GviU-65">
          <mxGeometry width="540" height="330" as="geometry" />
        </mxCell>
        <mxCell id="LVj0R4BeIXPEFF04GviU-50" value="CPU SW" style="shape=folder;fontStyle=1;spacingTop=10;tabWidth=40;tabHeight=14;tabPosition=left;html=1;" vertex="1" parent="LVj0R4BeIXPEFF04GviU-65">
          <mxGeometry x="230" y="140" width="90" height="70" as="geometry" />
        </mxCell>
        <mxCell id="LVj0R4BeIXPEFF04GviU-60" value="Motor Operation" style="shape=folder;fontStyle=1;spacingTop=10;tabWidth=40;tabHeight=14;tabPosition=left;html=1;" vertex="1" parent="LVj0R4BeIXPEFF04GviU-65">
          <mxGeometry x="230" y="20" width="120" height="70" as="geometry" />
        </mxCell>
        <mxCell id="LVj0R4BeIXPEFF04GviU-61" value="Safety Operations&lt;span style=&quot;color: rgba(0 , 0 , 0 , 0) ; font-family: monospace ; font-size: 0px ; font-weight: 400&quot;&gt;%3CmxGraphModel%3E%3Croot%3E%3CmxCell%20id%3D%220%22%2F%3E%3CmxCell%20id%3D%221%22%20parent%3D%220%22%2F%3E%3CmxCell%20id%3D%222%22%20value%3D%22Motor%20Operation%22%20style%3D%22shape%3Dfolder%3BfontStyle%3D1%3BspacingTop%3D10%3BtabWidth%3D40%3BtabHeight%3D14%3BtabPosition%3Dleft%3Bhtml%3D1%3B%22%20vertex%3D%221%22%20parent%3D%221%22%3E%3CmxGeometry%20x%3D%221029.6544827586206%22%20y%3D%22930%22%20width%3D%22146.9%22%20height%3D%2270%22%20as%3D%22geometry%22%2F%3E%3C%2FmxCell%3E%3C%2Froot%3E%3C%2FmxGraphModel%3E&lt;/span&gt;" style="shape=folder;fontStyle=1;spacingTop=10;tabWidth=40;tabHeight=14;tabPosition=left;html=1;" vertex="1" parent="LVj0R4BeIXPEFF04GviU-65">
          <mxGeometry x="420" y="120" width="100" height="70" as="geometry" />
        </mxCell>
        <mxCell id="LVj0R4BeIXPEFF04GviU-62" value="Status Operations" style="shape=folder;fontStyle=1;spacingTop=10;tabWidth=40;tabHeight=14;tabPosition=left;html=1;" vertex="1" parent="LVj0R4BeIXPEFF04GviU-65">
          <mxGeometry x="360" y="240" width="110" height="70" as="geometry" />
        </mxCell>
        <mxCell id="LVj0R4BeIXPEFF04GviU-63" value="InputOutputHandling" style="shape=folder;fontStyle=1;spacingTop=10;tabWidth=40;tabHeight=14;tabPosition=left;html=1;" vertex="1" parent="LVj0R4BeIXPEFF04GviU-65">
          <mxGeometry x="60" y="240" width="130" height="70" as="geometry" />
        </mxCell>
        <mxCell id="LVj0R4BeIXPEFF04GviU-64" value="Motor Operation" style="shape=folder;fontStyle=1;spacingTop=10;tabWidth=40;tabHeight=14;tabPosition=left;html=1;" vertex="1" parent="LVj0R4BeIXPEFF04GviU-65">
          <mxGeometry x="30" y="100" width="100" height="70" as="geometry" />
        </mxCell>
        <mxCell id="LVj0R4BeIXPEFF04GviU-66" value="&amp;lt;&amp;lt;import&amp;gt;&amp;gt;" style="edgeStyle=none;html=1;endArrow=open;endSize=12;dashed=1;verticalAlign=bottom;entryX=0;entryY=0;entryDx=65;entryDy=14;entryPerimeter=0;" edge="1" parent="LVj0R4BeIXPEFF04GviU-65" target="LVj0R4BeIXPEFF04GviU-50">
          <mxGeometry width="160" relative="1" as="geometry">
            <mxPoint x="295" y="90" as="sourcePoint" />
            <mxPoint x="300" y="213" as="targetPoint" />
          </mxGeometry>
        </mxCell>
        <mxCell id="LVj0R4BeIXPEFF04GviU-69" value="&amp;lt;&amp;lt;import&amp;gt;&amp;gt;" style="edgeStyle=none;html=1;endArrow=open;endSize=12;dashed=1;verticalAlign=bottom;entryX=0;entryY=0;entryDx=90;entryDy=56;entryPerimeter=0;" edge="1" parent="LVj0R4BeIXPEFF04GviU-65" target="LVj0R4BeIXPEFF04GviU-50">
          <mxGeometry width="160" relative="1" as="geometry">
            <mxPoint x="459.9976767676767" y="258" as="sourcePoint" />
            <mxPoint x="360" y="210" as="targetPoint" />
          </mxGeometry>
        </mxCell>
        <mxCell id="LVj0R4BeIXPEFF04GviU-67" value="&amp;lt;&amp;lt;import&amp;gt;&amp;gt;" style="edgeStyle=none;html=1;endArrow=open;endSize=12;dashed=1;verticalAlign=bottom;" edge="1" parent="1" target="LVj0R4BeIXPEFF04GviU-50">
          <mxGeometry width="160" relative="1" as="geometry">
            <mxPoint x="489.9976767676767" y="963" as="sourcePoint" />
            <mxPoint x="493.23" y="1027" as="targetPoint" />
          </mxGeometry>
        </mxCell>
        <mxCell id="LVj0R4BeIXPEFF04GviU-68" value="&amp;lt;&amp;lt;import&amp;gt;&amp;gt;" style="edgeStyle=none;html=1;endArrow=open;endSize=12;dashed=1;verticalAlign=bottom;" edge="1" parent="1" target="LVj0R4BeIXPEFF04GviU-50">
          <mxGeometry width="160" relative="1" as="geometry">
            <mxPoint x="509.9976767676767" y="1070" as="sourcePoint" />
            <mxPoint x="610" y="1092.0691246326253" as="targetPoint" />
          </mxGeometry>
        </mxCell>
      </root>
    </mxGraphModel>
  </diagram>
</mxfile>
